<?xml version="1.0" encoding="UTF-8"?> <svg xmlns="http://www.w3.org/2000/svg" width="1366" height="768" viewBox="0 0 1366 768" fill="none"><path d="M222.63 61.57L153.7 237.9H144.35L75.42 61.57H83.44L141.15 208.78L149.16 230.42L157.18 208.78L214.62 61.57H222.63Z" fill="#000BFF"></path><path d="M383.99 237.9H368.76L347.12 183.13H263.23L241.6 237.9H226.64L296.9 61.57H313.73L383.99 237.9ZM268.58 170.04H342.05L305.18 75.46L268.58 170.04Z" fill="#000BFF"></path><path d="M478.04 61.57C496.03 61.57 510.41 66.2 521.19 75.46C531.96 84.72 537.35 97.19 537.35 112.86C537.35 128.71 531.91 141.04 521.05 149.86C510.19 158.68 495.76 163.09 477.77 163.09L475.9 164.42H432.09V237.89H411.52V61.57H478.04ZM477.77 145.19C490.59 145.19 500.16 142.48 506.49 137.04C512.81 131.61 515.98 123.55 515.98 112.86C515.98 102.17 512.82 94.16 506.49 88.81C500.17 83.47 490.6 80.8 477.77 80.8H432.08V145.18H477.77V145.19ZM489.79 149.2L548.03 237.9H523.72L472.69 160.42L489.79 149.2Z" fill="#000BFF"></path><path d="M606.8 61.57V237.9H579.55V61.57H606.8Z" fill="#000BFF"></path><path d="M800.76 237.9H766.56L751.06 193.28H680L664.24 237.9H630.85L696.3 61.57H735.57L800.76 237.9ZM688.28 167.9H742.78L715.53 88.28L688.28 167.9Z" fill="#000BFF"></path><path d="M818.93 237.9V61.57H902.02C923.75 61.75 939.73 65.94 949.97 74.13C960.21 82.32 965.33 94.08 965.33 109.4C965.33 119.2 962.43 127.7 956.65 134.91C950.86 142.12 942.09 146.71 930.33 148.67V148.94C943.33 150.72 953.17 155.4 959.85 162.97C966.53 170.54 969.87 179.58 969.87 190.09C969.87 205.23 964.48 216.98 953.71 225.36C942.93 233.73 926.95 237.92 905.76 237.92H818.93V237.9ZM860.61 134.24H895.07C912.34 134.24 920.99 127.47 920.99 113.93C920.99 100.4 912.35 93.63 895.07 93.63H860.61V134.24ZM860.61 206.91H899.35C908.08 206.91 914.62 205.13 918.99 201.57C923.35 198.01 925.54 192.84 925.54 186.07C925.54 179.48 923.36 174.45 918.99 170.98C914.62 167.51 908.08 165.77 899.35 165.77H860.61V206.91Z" fill="#000BFF"></path><path d="M1044.15 197.02H1128.04V237.9H989.64V61.57H1044.14V197.02H1044.15Z" fill="#000BFF"></path><path d="M1141.39 237.9V61.57H1287.79V107.25H1203.63V129.16H1271.49V171.37H1203.63V192.21H1291V237.9H1141.39Z" fill="#000BFF"></path><path d="M487.78 321.96H390.8V369.78H466.94V397.03H390.8V471.04H357.94V294.71H487.78V321.96Z" fill="#000BFF"></path><path d="M587.43 292.04C606.13 292.04 622.16 295.6 635.52 302.72C648.88 309.85 659.12 320.18 666.24 333.71C673.36 347.25 676.93 363.63 676.93 382.87C676.93 402.11 673.36 418.49 666.24 432.03C659.12 445.57 648.88 455.9 635.52 463.02C622.16 470.14 606.13 473.7 587.43 473.7C568.9 473.7 552.92 470.14 539.48 463.02C526.03 455.9 515.7 445.57 508.49 432.03C501.28 418.5 497.67 402.11 497.67 382.87C497.67 363.63 501.28 347.25 508.49 333.71C515.7 320.18 526.03 309.85 539.48 302.72C552.93 295.6 568.91 292.04 587.43 292.04ZM587.43 338.79C581.37 338.79 576.43 340.35 572.6 343.47C568.77 346.59 565.92 351.35 564.05 357.76C562.18 364.17 561.24 372.55 561.24 382.87C561.24 393.02 562.18 401.35 564.05 407.85C565.92 414.35 568.77 419.16 572.6 422.28C576.43 425.4 581.37 426.96 587.43 426.96C593.48 426.96 598.42 425.4 602.26 422.28C606.09 419.17 608.89 414.36 610.68 407.85C612.46 401.35 613.35 393.02 613.35 382.87C613.35 372.54 612.46 364.17 610.68 357.76C608.9 351.35 606.09 346.59 602.26 343.47C598.43 340.36 593.49 338.79 587.43 338.79Z" fill="#000BFF"></path><path d="M863.94 294.71V471.04H796.61L754.4 390.89L744.78 369.25H744.25L745.32 405.59V471.04H691.35V294.71H758.67L800.88 375.12L810.5 396.5H811.03L809.96 360.16V294.71H863.94Z" fill="#000BFF"></path><path d="M1030.38 294.71V321.96H970.8V471.04H937.94V321.96H878.36V294.71H1030.38Z" fill="#000BFF"></path><path d="M342.72 650.21C339.51 663.93 334.04 674.97 326.29 683.34C318.54 691.71 309.15 697.72 298.1 701.37C287.06 705.02 274.77 706.85 261.23 706.85C242.7 706.85 226.72 703.29 213.28 696.17C199.83 689.05 189.5 678.72 182.29 665.18C175.08 651.65 171.47 635.26 171.47 616.02C171.47 596.78 175.08 580.4 182.29 566.86C189.5 553.33 199.83 543 213.28 535.87C226.73 528.75 242.71 525.19 261.23 525.19C274.23 525.19 286.34 527.02 297.57 530.66C308.79 534.31 318.28 540.06 326.02 547.89C333.77 555.73 338.89 565.97 341.38 578.62L287.95 599.46C286.52 587.89 283.63 580.4 279.27 577.02C274.9 573.64 269.43 571.94 262.84 571.94C256.78 571.94 251.66 573.5 247.48 576.62C243.29 579.74 240.18 584.55 238.13 591.05C236.08 597.55 235.06 605.88 235.06 616.03C235.06 626.01 236 634.29 237.87 640.88C239.74 647.47 242.81 652.33 247.09 655.44C251.36 658.56 257.06 660.12 264.19 660.12C270.6 660.12 275.85 658.21 279.95 654.38C284.05 650.55 286.63 644.45 287.7 636.08L342.72 650.21Z" fill="#000BFF"></path><path d="M436.22 525.18C454.21 525.18 469.7 528.79 482.71 536C495.71 543.21 505.69 553.59 512.63 567.12C519.57 580.66 523.05 596.96 523.05 616.01C523.05 635.07 519.58 651.37 512.63 664.9C505.68 678.44 495.71 688.81 482.71 696.03C469.71 703.24 454.21 706.85 436.22 706.85C418.23 706.85 402.73 703.24 389.73 696.03C376.73 688.82 366.71 678.44 359.67 664.9C352.63 651.37 349.11 635.07 349.11 616.01C349.11 596.95 352.63 580.66 359.67 567.12C366.7 553.59 376.72 543.21 389.73 536C402.74 528.79 418.23 525.18 436.22 525.18ZM436.22 562.85C428.2 562.85 421.39 564.85 415.78 568.86C410.17 572.87 405.94 578.79 403.09 586.63C400.24 594.47 398.82 604.26 398.82 616.02C398.82 627.77 400.24 637.57 403.09 645.41C405.94 653.25 410.17 659.17 415.78 663.17C421.39 667.18 428.2 669.18 436.22 669.18C444.41 669.18 451.27 667.18 456.79 663.17C462.31 659.16 466.45 653.24 469.21 645.41C471.97 637.57 473.35 627.78 473.35 616.02C473.35 604.27 471.97 594.47 469.21 586.63C466.45 578.8 462.31 572.87 456.79 568.86C451.27 564.85 444.41 562.85 436.22 562.85Z" fill="#000BFF"></path><path d="M696.7 527.85V635.25C696.7 659.12 690.38 677.02 677.73 688.95C665.08 700.88 646.65 706.85 622.43 706.85C598.21 706.85 579.72 700.89 566.99 688.95C554.25 677.02 547.89 659.12 547.89 635.25V527.85H582.62V633.11C582.62 648.43 585.87 659.78 592.37 667.17C598.87 674.56 608.89 678.26 622.43 678.26C635.96 678.26 645.98 674.57 652.49 667.17C658.99 659.78 662.24 648.43 662.24 633.11V527.85H696.7Z" fill="#000BFF"></path><path d="M807.04 527.85C825.56 527.85 840.3 532.53 851.26 541.88C862.21 551.23 867.69 563.92 867.69 579.95C867.69 595.98 862.17 608.45 851.13 617.35C840.09 626.26 825.39 630.71 807.05 630.71L804.65 632.31H762.7V704.18H737.85V527.85H807.04ZM805.97 610.4C818.08 610.4 827.08 607.91 832.95 602.92C838.83 597.93 841.77 590.36 841.77 580.21C841.77 570.06 838.83 562.49 832.95 557.5C827.07 552.52 818.08 550.02 805.97 550.02H762.69V610.4H805.97ZM820.4 615.48L878.38 704.18H849.26L799.3 626.97L820.4 615.48Z" fill="#000BFF"></path><path d="M966 525.18C981.85 525.18 995.34 528.39 1006.47 534.8C1017.6 541.21 1026.46 550.83 1033.05 563.65L1019.16 574.34C1013.46 562.23 1006.16 553.59 997.25 548.42C988.34 543.26 977.39 540.67 964.39 540.67C954.41 540.67 946 542.18 939.14 545.21C932.28 548.24 927.12 552.25 923.64 557.23C920.17 562.22 918.43 567.83 918.43 574.06C918.43 581.54 920.83 587.82 925.64 592.9C930.45 597.98 939.44 602.03 952.62 605.05L988.95 612.8C1005.87 616.54 1017.8 622.06 1024.75 629.36C1031.7 636.66 1035.17 645.83 1035.17 656.88C1035.17 666.68 1032.36 675.36 1026.75 682.93C1021.14 690.5 1013.35 696.38 1003.37 700.56C993.39 704.74 981.73 706.84 968.37 706.84C955.72 706.84 944.5 705.1 934.71 701.63C924.92 698.16 916.59 693.35 909.73 687.2C902.87 681.06 897.57 673.89 893.83 665.69L908.26 653.94C911.11 661.78 915.34 668.5 920.95 674.11C926.56 679.72 933.46 684 941.66 686.93C949.85 689.87 959.11 691.34 969.44 691.34C979.06 691.34 987.52 690.1 994.82 687.6C1002.12 685.11 1007.82 681.37 1011.92 676.38C1016.02 671.39 1018.06 665.34 1018.06 658.21C1018.06 651.44 1015.7 645.61 1010.98 640.71C1006.26 635.81 997.84 632.03 985.73 629.36L947.53 620.81C936.31 618.32 927.31 614.98 920.55 610.79C913.78 606.61 908.88 601.57 905.86 595.69C902.83 589.81 901.32 583.31 901.32 576.19C901.32 567.1 903.9 558.69 909.07 550.94C914.23 543.19 921.67 536.96 931.38 532.24C941.11 527.54 952.64 525.18 966 525.18Z" fill="#000BFF"></path><path d="M1070.46 704.18V527.85H1188.55V534.53H1077.94V610.94H1166.1V617.62H1077.94V697.5H1192.82V704.18H1070.46Z" fill="#000BFF"></path></svg> 