<?xml version="1.0" encoding="UTF-8"?> <svg xmlns="http://www.w3.org/2000/svg" width="96" height="96" viewBox="0 0 96 96" fill="none"><mask id="mask0_25_266" style="mask-type:alpha" maskUnits="userSpaceOnUse" x="17" y="16" width="63" height="63"><path d="M17 16H80V79H17V16Z" fill="white"></path></mask><g mask="url(#mask0_25_266)"><path fill-rule="evenodd" clip-rule="evenodd" d="M63.9599 70.498L51.7734 49.3898H76.1487C75.5546 58.171 70.859 65.8455 63.9599 70.498ZM36.3116 72.39L48.4996 51.2796L60.6884 72.39C57.0072 74.1996 52.871 75.2208 48.4996 75.2208C44.1283 75.2208 39.9928 74.2003 36.3116 72.39ZM20.8505 49.3898H45.2266L33.0401 70.498C26.141 65.8455 21.4454 58.171 20.8505 49.3898ZM33.0401 24.5022L45.2266 45.6104H20.8505C21.4454 36.8292 26.1403 29.1547 33.0401 24.5022ZM60.6884 22.6102L48.4996 43.7207L36.3116 22.6095C39.992 20.7999 44.1283 19.7794 48.4996 19.7794C52.8717 19.7794 57.0072 20.7999 60.6884 22.6102ZM76.1487 45.6104H51.7734L63.9599 24.5022C70.859 29.1547 75.5546 36.8292 76.1487 45.6104ZM48.4996 16C31.1307 16 17 30.1306 17 47.5001C17 64.8689 31.1307 79.0002 48.4996 79.0002C65.8693 79.0002 80 64.8689 80 47.5001C80 30.1306 65.8693 16 48.4996 16Z" fill="#000BFF"></path></g></svg> 