<?xml version="1.0" encoding="UTF-8"?> <svg xmlns="http://www.w3.org/2000/svg" width="96" height="96" viewBox="0 0 96 96" fill="none"><mask id="mask0_25_298" style="mask-type:alpha" maskUnits="userSpaceOnUse" x="42" y="19" width="35" height="35"><path d="M42.355 19H77V53.622H42.355V19Z" fill="white"></path></mask><g mask="url(#mask0_25_298)"><path fill-rule="evenodd" clip-rule="evenodd" d="M42.355 28.2126L42.8294 29.3994C43.0843 30.0374 43.3694 30.6994 43.6771 31.3698L44.0753 32.2358L70.8881 25.106L63.7126 51.9082L64.5807 52.3068C65.2225 52.6013 65.8847 52.8851 66.5507 53.1509L67.7325 53.622L77.0002 19L42.355 28.2126Z" fill="#000BFF"></path></g><path fill-rule="evenodd" clip-rule="evenodd" d="M30.6189 39.9605L31.0933 41.1473C31.3482 41.7852 31.6333 42.4473 31.941 43.1169L32.3392 43.9836L59.152 36.8531L51.9765 63.6561L52.8446 64.0547C53.4864 64.3491 54.1486 64.6322 54.8146 64.8987L55.9957 65.3698L65.2641 30.7478L30.6189 39.9605Z" fill="#000BFF"></path><path fill-rule="evenodd" clip-rule="evenodd" d="M19 51.5907L19.4744 52.7775C19.7293 53.4154 20.0144 54.0775 20.3221 54.7479L20.7203 55.6138L47.5331 48.4841L40.3576 75.2863L41.2265 75.6849C41.8675 75.9793 42.5297 76.2632 43.1957 76.5289L44.3775 77L53.6452 42.3781L19 51.5907Z" fill="#000BFF"></path></svg> 