<?xml version="1.0" encoding="UTF-8"?> <svg xmlns="http://www.w3.org/2000/svg" width="96" height="96" viewBox="0 0 96 96" fill="none"><mask id="mask0_25_251" style="mask-type:alpha" maskUnits="userSpaceOnUse" x="30" y="17" width="36" height="33"><path d="M30.0957 17H65.9039V49.4282H30.0957V17Z" fill="white"></path></mask><g mask="url(#mask0_25_251)"><path fill-rule="evenodd" clip-rule="evenodd" d="M65.9039 18.6255L64.7324 18.1258C64.1034 17.8575 63.436 17.593 62.7468 17.339L61.8552 17.0101L47.9659 40.8497L34.1391 16.9996L33.246 17.3301C32.5861 17.5736 31.9188 17.8403 31.2619 18.1213L30.0957 18.6203L47.9569 49.4281L65.9039 18.6255Z" fill="#000BFF"></path></g><path fill-rule="evenodd" clip-rule="evenodd" d="M80.952 33.4114L76.9033 31.0467L47.9661 57.8834L19.0912 31.0362L15.0479 33.4062L47.957 64.214L80.952 33.4114Z" fill="#000BFF"></path><mask id="mask1_25_251" style="mask-type:alpha" maskUnits="userSpaceOnUse" x="0" y="45" width="96" height="34"><path d="M0 45.0729H96V79H0V45.0729Z" fill="white"></path></mask><g mask="url(#mask1_25_251)"><path fill-rule="evenodd" clip-rule="evenodd" d="M91.9514 45.0834L47.9662 73.4187L4.04339 45.0729L0 48.1922L47.9572 79L96.0001 48.1974L91.9514 45.0834Z" fill="#000BFF"></path></g></svg> 