<?xml version="1.0" encoding="UTF-8"?> <svg xmlns="http://www.w3.org/2000/svg" width="96" height="96" viewBox="0 0 96 96" fill="none"><mask id="mask0_25_284" style="mask-type:alpha" maskUnits="userSpaceOnUse" x="5" y="30" width="33" height="36"><path d="M5 30H37.6204V65.9998H5V30Z" fill="white"></path></mask><g mask="url(#mask0_25_284)"><path fill-rule="evenodd" clip-rule="evenodd" d="M37.288 33.1669C37.0431 32.5036 36.7748 31.8326 36.4921 31.1722L35.9901 29.9998L5 47.9574L35.9849 65.9998L36.4876 64.8228C36.7574 64.1904 37.0235 63.5187 37.279 62.8258L37.6099 61.9294L13.6292 47.9657L37.6204 34.0648L37.288 33.1669Z" fill="#000BFF"></path></g><mask id="mask1_25_284" style="mask-type:alpha" maskUnits="userSpaceOnUse" x="58" y="30" width="33" height="36"><path d="M58.3796 30.0002H91V66H58.3796V30.0002Z" fill="white"></path></mask><g mask="url(#mask1_25_284)"><path fill-rule="evenodd" clip-rule="evenodd" d="M60.0152 30.0002L59.5125 31.1779C59.2426 31.8103 58.9766 32.4812 58.7211 33.1741L58.3902 34.0705L82.3709 48.0342L58.3796 61.9351L58.712 62.833C58.957 63.4964 59.2253 64.1673 59.5079 64.8277L60.0099 66.0002L91 48.0433L60.0152 30.0002Z" fill="#000BFF"></path></g></svg> 